<?xml version="1.0" encoding="UTF-8" standalone="no"?>
<!DOCTYPE svg PUBLIC "-//W3C//DTD SVG 1.1//EN"
 "http://www.w3.org/Graphics/SVG/1.1/DTD/svg11.dtd">
<!-- Generated by graphviz version 2.47.0 (20210316.0004)
 -->
<!-- Title: dependencies Pages: 1 -->
<svg width="1469pt" height="363pt"
 viewBox="0.00 0.00 1469.00 363.00" xmlns="http://www.w3.org/2000/svg" xmlns:xlink="http://www.w3.org/1999/xlink">
<g id="graph0" class="graph" transform="scale(1 1) rotate(0) translate(4 359)">
<title>dependencies</title>
<polygon fill="white" stroke="transparent" points="-4,4 -4,-359 1465,-359 1465,4 -4,4"/>
<text text-anchor="start" x="709.51" y="-42.4" font-family="Times-12" font-weight="bold" font-size="14.00">Legend</text>
<polygon fill="#ffffb3" stroke="transparent" points="496.5,-10 496.5,-30 516.5,-30 516.5,-10 496.5,-10"/>
<text text-anchor="start" x="520.13" y="-15.4" font-family="Times-12" font-size="14.00"> &#160;Declarations</text>
<polygon fill="#8dd3c7" stroke="transparent" points="609.5,-10 609.5,-30 629.5,-30 629.5,-10 609.5,-10"/>
<text text-anchor="start" x="633.23" y="-15.4" font-family="Times-12" font-size="14.00"> &#160;Module</text>
<polygon fill="#80b1d3" stroke="transparent" points="695.5,-10 695.5,-30 715.5,-30 715.5,-10 695.5,-10"/>
<text text-anchor="start" x="719.28" y="-15.4" font-family="Times-12" font-size="14.00"> &#160;Bootstrap</text>
<polygon fill="#fdb462" stroke="transparent" points="792.5,-10 792.5,-30 812.5,-30 812.5,-10 792.5,-10"/>
<text text-anchor="start" x="816.17" y="-15.4" font-family="Times-12" font-size="14.00"> &#160;Providers</text>
<polygon fill="#fb8072" stroke="transparent" points="888.5,-10 888.5,-30 908.5,-30 908.5,-10 888.5,-10"/>
<text text-anchor="start" x="912.23" y="-15.4" font-family="Times-12" font-size="14.00"> &#160;Exports</text>
<g id="clust1" class="cluster">
<title>cluster_AppModule</title>
<polygon fill="none" stroke="black" stroke-dasharray="1,5" points="638,-146 638,-347 1155,-347 1155,-146 638,-146"/>
</g>
<g id="clust3" class="cluster">
<title>cluster_AppModule_imports</title>
<polygon fill="none" stroke="black" points="784,-154 784,-282 1115,-282 1115,-154 784,-154"/>
</g>
<g id="clust6" class="cluster">
<title>cluster_AppModule_providers</title>
<polygon fill="none" stroke="black" points="646,-230 646,-282 776,-282 776,-230 646,-230"/>
</g>
<g id="clust7" class="cluster">
<title>cluster_AuthModule</title>
<polygon fill="none" stroke="black" stroke-dasharray="1,5" points="8,-146 8,-214 290,-214 290,-146 8,-146"/>
</g>
<g id="clust12" class="cluster">
<title>cluster_AuthModule_providers</title>
<polygon fill="none" stroke="black" points="16,-154 16,-206 282,-206 282,-154 16,-154"/>
</g>
<g id="clust13" class="cluster">
<title>cluster_LatihanModule</title>
<polygon fill="none" stroke="black" stroke-dasharray="1,5" points="971,-70 971,-138 1141,-138 1141,-70 971,-70"/>
</g>
<g id="clust18" class="cluster">
<title>cluster_LatihanModule_providers</title>
<polygon fill="none" stroke="black" points="979,-78 979,-130 1133,-130 1133,-78 979,-78"/>
</g>
<g id="clust19" class="cluster">
<title>cluster_PrismaModule</title>
<polygon fill="none" stroke="black" stroke-dasharray="1,5" points="1163,-222 1163,-290 1453,-290 1453,-222 1163,-222"/>
</g>
<g id="clust22" class="cluster">
<title>cluster_PrismaModule_exports</title>
<polygon fill="none" stroke="black" points="1329,-230 1329,-282 1445,-282 1445,-230 1329,-230"/>
</g>
<g id="clust24" class="cluster">
<title>cluster_PrismaModule_providers</title>
<polygon fill="none" stroke="black" points="1171,-230 1171,-282 1321,-282 1321,-230 1171,-230"/>
</g>
<g id="clust25" class="cluster">
<title>cluster_SekolahModule</title>
<polygon fill="none" stroke="black" stroke-dasharray="1,5" points="298,-146 298,-214 472,-214 472,-146 298,-146"/>
</g>
<g id="clust30" class="cluster">
<title>cluster_SekolahModule_providers</title>
<polygon fill="none" stroke="black" points="306,-154 306,-206 464,-206 464,-154 306,-154"/>
</g>
<g id="clust31" class="cluster">
<title>cluster_TaskModule</title>
<polygon fill="none" stroke="black" stroke-dasharray="1,5" points="480,-146 480,-214 630,-214 630,-146 480,-146"/>
</g>
<g id="clust36" class="cluster">
<title>cluster_TaskModule_providers</title>
<polygon fill="none" stroke="black" points="488,-154 488,-206 622,-206 622,-154 488,-154"/>
</g>
<!-- AuthModule -->
<g id="node1" class="node">
<title>AuthModule</title>
<polygon fill="#8dd3c7" stroke="black" points="879.55,-274 876.55,-278 855.55,-278 852.55,-274 792.45,-274 792.45,-238 879.55,-238 879.55,-274"/>
<text text-anchor="middle" x="836" y="-251.8" font-family="Times,serif" font-size="14.00">AuthModule</text>
</g>
<!-- AppModule -->
<g id="node6" class="node">
<title>AppModule</title>
<polygon fill="#8dd3c7" stroke="black" points="1048.66,-339 1045.66,-343 1024.66,-343 1021.66,-339 965.34,-339 965.34,-303 1048.66,-303 1048.66,-339"/>
<text text-anchor="middle" x="1007" y="-316.8" font-family="Times,serif" font-size="14.00">AppModule</text>
</g>
<!-- AuthModule&#45;&gt;AppModule -->
<g id="edge1" class="edge">
<title>AuthModule&#45;&gt;AppModule</title>
<path fill="none" stroke="black" d="M836,-274.11C836,-293.34 836,-321 836,-321 836,-321 955.17,-321 955.17,-321"/>
<polygon fill="black" stroke="black" points="955.17,-324.5 965.17,-321 955.17,-317.5 955.17,-324.5"/>
</g>
<!-- LatihanModule -->
<g id="node2" class="node">
<title>LatihanModule</title>
<polygon fill="#8dd3c7" stroke="black" points="1107.31,-198 1104.31,-202 1083.31,-202 1080.31,-198 1004.69,-198 1004.69,-162 1107.31,-162 1107.31,-198"/>
<text text-anchor="middle" x="1056" y="-175.8" font-family="Times,serif" font-size="14.00">LatihanModule</text>
</g>
<!-- LatihanModule&#45;&gt;AppModule -->
<g id="edge2" class="edge">
<title>LatihanModule&#45;&gt;AppModule</title>
<path fill="none" stroke="black" d="M1012.73,-198.14C1012.73,-198.14 1012.73,-292.93 1012.73,-292.93"/>
<polygon fill="black" stroke="black" points="1009.23,-292.92 1012.73,-302.93 1016.23,-292.93 1009.23,-292.92"/>
</g>
<!-- PrismaModule -->
<g id="node3" class="node">
<title>PrismaModule</title>
<polygon fill="#8dd3c7" stroke="black" points="987.43,-198 984.43,-202 963.43,-202 960.43,-198 888.57,-198 888.57,-162 987.43,-162 987.43,-198"/>
<text text-anchor="middle" x="938" y="-175.8" font-family="Times,serif" font-size="14.00">PrismaModule</text>
</g>
<!-- PrismaModule&#45;&gt;AuthModule -->
<g id="edge7" class="edge">
<title>PrismaModule&#45;&gt;AuthModule</title>
<path fill="none" stroke="black" d="M891.75,-198.01C891.75,-220.49 891.75,-256 891.75,-256 891.75,-256 889.65,-256 889.65,-256"/>
<polygon fill="black" stroke="black" points="889.65,-252.5 879.65,-256 889.65,-259.5 889.65,-252.5"/>
</g>
<!-- SekolahModule -->
<g id="node4" class="node">
<title>SekolahModule</title>
<polygon fill="#8dd3c7" stroke="black" points="1002.15,-274 999.15,-278 978.15,-278 975.15,-274 897.85,-274 897.85,-238 1002.15,-238 1002.15,-274"/>
<text text-anchor="middle" x="950" y="-251.8" font-family="Times,serif" font-size="14.00">SekolahModule</text>
</g>
<!-- PrismaModule&#45;&gt;SekolahModule -->
<g id="edge13" class="edge">
<title>PrismaModule&#45;&gt;SekolahModule</title>
<path fill="none" stroke="black" d="M927.52,-198.01C927.52,-198.01 927.52,-227.85 927.52,-227.85"/>
<polygon fill="black" stroke="black" points="924.02,-227.85 927.52,-237.85 931.02,-227.85 924.02,-227.85"/>
</g>
<!-- TaskModule -->
<g id="node5" class="node">
<title>TaskModule</title>
<polygon fill="#8dd3c7" stroke="black" points="1107.26,-274 1104.26,-278 1083.26,-278 1080.26,-274 1020.74,-274 1020.74,-238 1107.26,-238 1107.26,-274"/>
<text text-anchor="middle" x="1064" y="-251.8" font-family="Times,serif" font-size="14.00">TaskModule</text>
</g>
<!-- PrismaModule&#45;&gt;TaskModule -->
<g id="edge15" class="edge">
<title>PrismaModule&#45;&gt;TaskModule</title>
<path fill="none" stroke="black" d="M957.37,-198.04C957.37,-205.75 957.37,-213 957.37,-213 957.37,-213 1078.31,-213 1078.31,-213 1078.31,-213 1078.31,-227.51 1078.31,-227.51"/>
<polygon fill="black" stroke="black" points="1074.81,-227.51 1078.31,-237.51 1081.81,-227.51 1074.81,-227.51"/>
</g>
<!-- PrismaModule&#45;&gt;AppModule -->
<g id="edge3" class="edge">
<title>PrismaModule&#45;&gt;AppModule</title>
<path fill="none" stroke="black" d="M894.71,-198.08C894.71,-234.23 894.71,-312 894.71,-312 894.71,-312 955.19,-312 955.19,-312"/>
<polygon fill="black" stroke="black" points="955.19,-315.5 965.19,-312 955.19,-308.5 955.19,-315.5"/>
</g>
<!-- PrismaService  -->
<g id="node11" class="node">
<title>PrismaService </title>
<polygon fill="#fb8072" stroke="black" points="1437.36,-274 1336.64,-274 1336.64,-238 1437.36,-238 1437.36,-274"/>
<text text-anchor="middle" x="1387" y="-251.8" font-family="Times,serif" font-size="14.00">PrismaService </text>
</g>
<!-- PrismaModule&#45;&gt;PrismaService  -->
<g id="edge11" class="edge">
<title>PrismaModule&#45;&gt;PrismaService </title>
<path fill="none" stroke="black" stroke-dasharray="5,2" d="M972.29,-198.12C972.29,-200.97 972.29,-203 972.29,-203 972.29,-203 1387,-203 1387,-203 1387,-203 1387,-227.76 1387,-227.76"/>
<polygon fill="black" stroke="black" points="1383.5,-227.76 1387,-237.76 1390.5,-227.76 1383.5,-227.76"/>
</g>
<!-- SekolahModule&#45;&gt;AppModule -->
<g id="edge4" class="edge">
<title>SekolahModule&#45;&gt;AppModule</title>
<path fill="none" stroke="black" d="M983.75,-274.11C983.75,-274.11 983.75,-292.99 983.75,-292.99"/>
<polygon fill="black" stroke="black" points="980.25,-292.99 983.75,-302.99 987.25,-292.99 980.25,-292.99"/>
</g>
<!-- TaskModule&#45;&gt;AppModule -->
<g id="edge5" class="edge">
<title>TaskModule&#45;&gt;AppModule</title>
<path fill="none" stroke="black" d="M1034.72,-274.11C1034.72,-274.11 1034.72,-292.99 1034.72,-292.99"/>
<polygon fill="black" stroke="black" points="1031.22,-292.99 1034.72,-302.99 1038.22,-292.99 1031.22,-292.99"/>
</g>
<!-- AppService -->
<g id="node7" class="node">
<title>AppService</title>
<ellipse fill="#fdb462" stroke="black" cx="711" cy="-256" rx="56.74" ry="18"/>
<text text-anchor="middle" x="711" y="-251.8" font-family="Times,serif" font-size="14.00">AppService</text>
</g>
<!-- AppService&#45;&gt;AppModule -->
<g id="edge6" class="edge">
<title>AppService&#45;&gt;AppModule</title>
<path fill="none" stroke="black" d="M711,-274.29C711,-296.21 711,-330 711,-330 711,-330 955.22,-330 955.22,-330"/>
<polygon fill="black" stroke="black" points="955.22,-333.5 965.22,-330 955.22,-326.5 955.22,-333.5"/>
</g>
<!-- AuthService -->
<g id="node8" class="node">
<title>AuthService</title>
<ellipse fill="#fdb462" stroke="black" cx="215" cy="-180" rx="59.11" ry="18"/>
<text text-anchor="middle" x="215" y="-175.8" font-family="Times,serif" font-size="14.00">AuthService</text>
</g>
<!-- AuthService&#45;&gt;AuthModule -->
<g id="edge8" class="edge">
<title>AuthService&#45;&gt;AuthModule</title>
<path fill="none" stroke="black" d="M215,-198.15C215,-211.74 215,-228 215,-228 215,-228 850.59,-228 850.59,-228 850.59,-228 850.59,-228.98 850.59,-228.98"/>
<polygon fill="black" stroke="black" points="847.09,-227.79 850.59,-237.79 854.09,-227.79 847.09,-227.79"/>
</g>
<!-- JwtStrategy -->
<g id="node9" class="node">
<title>JwtStrategy</title>
<ellipse fill="#fdb462" stroke="black" cx="81" cy="-180" rx="56.76" ry="18"/>
<text text-anchor="middle" x="81" y="-175.8" font-family="Times,serif" font-size="14.00">JwtStrategy</text>
</g>
<!-- JwtStrategy&#45;&gt;AuthModule -->
<g id="edge9" class="edge">
<title>JwtStrategy&#45;&gt;AuthModule</title>
<path fill="none" stroke="black" d="M81,-198.24C81,-213.57 81,-233 81,-233 81,-233 821.41,-233 821.41,-233 821.41,-233 821.41,-233.49 821.41,-233.49"/>
<polygon fill="black" stroke="black" points="817.91,-227.88 821.41,-237.88 824.91,-227.88 817.91,-227.88"/>
</g>
<!-- LatihanService -->
<g id="node10" class="node">
<title>LatihanService</title>
<ellipse fill="#fdb462" stroke="black" cx="1056" cy="-104" rx="69.48" ry="18"/>
<text text-anchor="middle" x="1056" y="-99.8" font-family="Times,serif" font-size="14.00">LatihanService</text>
</g>
<!-- LatihanService&#45;&gt;LatihanModule -->
<g id="edge10" class="edge">
<title>LatihanService&#45;&gt;LatihanModule</title>
<path fill="none" stroke="black" d="M1056,-122.01C1056,-122.01 1056,-151.85 1056,-151.85"/>
<polygon fill="black" stroke="black" points="1052.5,-151.85 1056,-161.85 1059.5,-151.85 1052.5,-151.85"/>
</g>
<!-- PrismaService -->
<g id="node12" class="node">
<title>PrismaService</title>
<ellipse fill="#fdb462" stroke="black" cx="1246" cy="-256" rx="66.63" ry="18"/>
<text text-anchor="middle" x="1246" y="-251.8" font-family="Times,serif" font-size="14.00">PrismaService</text>
</g>
<!-- PrismaService&#45;&gt;PrismaModule -->
<g id="edge12" class="edge">
<title>PrismaService&#45;&gt;PrismaModule</title>
<path fill="none" stroke="black" d="M1246,-237.85C1246,-224.26 1246,-208 1246,-208 1246,-208 942.45,-208 942.45,-208 942.45,-208 942.45,-207.02 942.45,-207.02"/>
<polygon fill="black" stroke="black" points="945.95,-208.21 942.45,-198.21 938.95,-208.21 945.95,-208.21"/>
</g>
<!-- SekolahService -->
<g id="node13" class="node">
<title>SekolahService</title>
<ellipse fill="#fdb462" stroke="black" cx="385" cy="-180" rx="71.21" ry="18"/>
<text text-anchor="middle" x="385" y="-175.8" font-family="Times,serif" font-size="14.00">SekolahService</text>
</g>
<!-- SekolahService&#45;&gt;SekolahModule -->
<g id="edge14" class="edge">
<title>SekolahService&#45;&gt;SekolahModule</title>
<path fill="none" stroke="black" d="M385,-198.49C385,-210.14 385,-223 385,-223 385,-223 912.6,-223 912.6,-223 912.6,-223 912.6,-227.96 912.6,-227.96"/>
<polygon fill="black" stroke="black" points="909.1,-227.96 912.6,-237.96 916.1,-227.96 909.1,-227.96"/>
</g>
<!-- TaskService -->
<g id="node14" class="node">
<title>TaskService</title>
<ellipse fill="#fdb462" stroke="black" cx="555" cy="-180" rx="58.53" ry="18"/>
<text text-anchor="middle" x="555" y="-175.8" font-family="Times,serif" font-size="14.00">TaskService</text>
</g>
<!-- TaskService&#45;&gt;TaskModule -->
<g id="edge16" class="edge">
<title>TaskService&#45;&gt;TaskModule</title>
<path fill="none" stroke="black" d="M555,-198.11C555,-207.9 555,-218 555,-218 555,-218 1049.46,-218 1049.46,-218 1049.46,-218 1049.46,-227.89 1049.46,-227.89"/>
<polygon fill="black" stroke="black" points="1045.97,-227.89 1049.46,-237.89 1052.97,-227.89 1045.97,-227.89"/>
</g>
</g>
</svg>
